<svg aria-roledescription="er" role="graphics-document document" viewBox="0 0 430.44976806640625 830.4000244140625" style="max-width: 430.44976806640625px;" xmlns="http://www.w3.org/2000/svg" width="100%" id="export-svg"><style xmlns="http://www.w3.org/1999/xhtml">@import url("https://cdnjs.cloudflare.com/ajax/libs/font-awesome/6.2.0/css/all.min.css"); p {margin: 0;}</style><style>#export-svg{font-family:arial,sans-serif;font-size:14px;fill:#333;}@keyframes edge-animation-frame{from{stroke-dashoffset:0;}}@keyframes dash{to{stroke-dashoffset:0;}}#export-svg .edge-animation-slow{stroke-dasharray:9,5!important;stroke-dashoffset:900;animation:dash 50s linear infinite;stroke-linecap:round;}#export-svg .edge-animation-fast{stroke-dasharray:9,5!important;stroke-dashoffset:900;animation:dash 20s linear infinite;stroke-linecap:round;}#export-svg .error-icon{fill:#ffffff;}#export-svg .error-text{fill:#000000;stroke:#000000;}#export-svg .edge-thickness-normal{stroke-width:2px;}#export-svg .edge-thickness-thick{stroke-width:3.5px;}#export-svg .edge-pattern-solid{stroke-dasharray:0;}#export-svg .edge-thickness-invisible{stroke-width:0;fill:none;}#export-svg .edge-pattern-dashed{stroke-dasharray:3;}#export-svg .edge-pattern-dotted{stroke-dasharray:2;}#export-svg .marker{fill:#000000;stroke:#000000;}#export-svg .marker.cross{stroke:#000000;}#export-svg svg{font-family:arial,sans-serif;font-size:14px;}#export-svg p{margin:0;}#export-svg .entityBox{fill:#ffffff;stroke:#000000;}#export-svg .attributeBoxOdd{fill:#ffffff;stroke:#000000;}#export-svg .attributeBoxEven{fill:#f2f2f2;stroke:#000000;}#export-svg .relationshipLabelBox{fill:#ffffff;opacity:0.7;background-color:#ffffff;}#export-svg .relationshipLabelBox rect{opacity:0.5;}#export-svg .relationshipLine{stroke:#000000;}#export-svg .entityTitleText{text-anchor:middle;font-size:18px;fill:#333;}#export-svg #MD_PARENT_START{fill:#f5f5f5!important;stroke:#000000!important;stroke-width:1;}#export-svg #MD_PARENT_END{fill:#f5f5f5!important;stroke:#000000!important;stroke-width:1;}#export-svg .node .neo-node{stroke:#000000;}#export-svg [data-look="neo"].node rect,#export-svg [data-look="neo"].cluster rect,#export-svg [data-look="neo"].node polygon{stroke:url(#export-svg-gradient);filter:drop-shadow( 0px 1px 2px rgba(0, 0, 0, 0.25));}#export-svg [data-look="neo"].node path{stroke:url(#export-svg-gradient);}#export-svg [data-look="neo"].node .outer-path{filter:drop-shadow( 0px 1px 2px rgba(0, 0, 0, 0.25));}#export-svg [data-look="neo"].node .neo-line path{stroke:hsl(0, 0%, 70%);filter:none;}#export-svg [data-look="neo"].node circle{stroke:url(#export-svg-gradient);filter:drop-shadow( 0px 1px 2px rgba(0, 0, 0, 0.25));}#export-svg [data-look="neo"].node circle .state-start{fill:#000000;}#export-svg [data-look="neo"].statediagram-cluster rect{fill:#ffffff;stroke:url(#export-svg-gradient);stroke-width:1px;}#export-svg [data-look="neo"].icon-shape .icon{fill:url(#export-svg-gradient);filter:drop-shadow( 0px 1px 2px rgba(0, 0, 0, 0.25));}#export-svg [data-look="neo"].icon-shape .icon-neo path{stroke:url(#export-svg-gradient);filter:drop-shadow( 0px 1px 2px rgba(0, 0, 0, 0.25));}#export-svg :root{--mermaid-font-family:"trebuchet ms",verdana,arial,sans-serif;}</style><g/><defs><marker orient="auto" markerHeight="240" markerWidth="190" refY="7" refX="0" id="MD_PARENT_START"><path d="M 18,7 L9,13 L1,7 L9,1 Z"/></marker></defs><defs><marker orient="auto" markerHeight="28" markerWidth="20" refY="7" refX="19" id="MD_PARENT_END"><path d="M 18,7 L9,13 L1,7 L9,1 Z"/></marker></defs><defs><marker orient="auto" markerHeight="18" markerWidth="18" refY="9" refX="0" id="ONLY_ONE_START"><path d="M9,0 L9,18 M15,0 L15,18" fill="none" stroke="gray"/></marker></defs><defs><marker orient="auto" markerHeight="18" markerWidth="18" refY="9" refX="18" id="ONLY_ONE_END"><path d="M3,0 L3,18 M9,0 L9,18" fill="none" stroke="gray"/></marker></defs><defs><marker orient="auto" markerHeight="18" markerWidth="30" refY="9" refX="0" id="ZERO_OR_ONE_START"><circle r="6" cy="9" cx="21" fill="white" stroke="gray"/><path d="M9,0 L9,18" fill="none" stroke="gray"/></marker></defs><defs><marker orient="auto" markerHeight="18" markerWidth="30" refY="9" refX="30" id="ZERO_OR_ONE_END"><circle r="6" cy="9" cx="9" fill="white" stroke="gray"/><path d="M21,0 L21,18" fill="none" stroke="gray"/></marker></defs><defs><marker orient="auto" markerHeight="36" markerWidth="45" refY="18" refX="18" id="ONE_OR_MORE_START"><path d="M0,18 Q 18,0 36,18 Q 18,36 0,18 M42,9 L42,27" fill="none" stroke="gray"/></marker></defs><defs><marker orient="auto" markerHeight="36" markerWidth="45" refY="18" refX="27" id="ONE_OR_MORE_END"><path d="M3,9 L3,27 M9,18 Q27,0 45,18 Q27,36 9,18" fill="none" stroke="gray"/></marker></defs><defs><marker orient="auto" markerHeight="36" markerWidth="57" refY="18" refX="18" id="ZERO_OR_MORE_START"><circle r="6" cy="18" cx="48" fill="white" stroke="gray"/><path d="M0,18 Q18,0 36,18 Q18,36 0,18" fill="none" stroke="gray"/></marker></defs><defs><marker orient="auto" markerHeight="36" markerWidth="57" refY="18" refX="39" id="ZERO_OR_MORE_END"><circle r="6" cy="18" cx="9" fill="white" stroke="gray"/><path d="M21,18 Q39,0 57,18 Q39,36 21,18" fill="none" stroke="gray"/></marker></defs><path marker-start="url(#ONLY_ONE_START)" marker-end="url(#ZERO_OR_MORE_END)" style="stroke: gray; fill: none;" d="M84.652,598.8L84.652,607.133C84.652,615.467,84.652,632.133,93.747,648.8C102.843,665.467,121.035,682.133,130.13,690.467L139.226,698.8" class="er relationshipLine"/><path marker-start="url(#ONLY_ONE_START)" marker-end="url(#ZERO_OR_MORE_END)" style="stroke: gray; fill: none;" d="M315.61,598.8L315.61,607.133C315.61,615.467,315.61,632.133,306.514,648.8C297.419,665.467,279.227,682.133,270.132,690.467L261.036,698.8" class="er relationshipLine"/><path marker-start="url(#ONLY_ONE_START)" marker-end="url(#ZERO_OR_MORE_END)" style="stroke: gray; fill: none;" d="M236.066,365.2L236.066,373.533C236.066,381.867,236.066,398.533,241.741,415.2C247.416,431.867,258.767,448.533,264.442,456.867L270.117,465.2" class="er relationshipLine"/><path marker-start="url(#ONLY_ONE_START)" marker-end="url(#ZERO_OR_MORE_END)" style="stroke: gray; fill: none;" d="M273.658,131.6L267.392,139.933C261.127,148.267,248.596,164.933,242.331,181.6C236.066,198.267,236.066,214.933,236.066,223.267L236.066,231.6" class="er relationshipLine"/><path marker-start="url(#ONLY_ONE_START)" marker-end="url(#ZERO_OR_MORE_END)" style="stroke: gray; fill: none;" d="M357.563,131.6L363.828,139.933C370.093,148.267,382.624,164.933,388.889,192.733C395.155,220.533,395.155,259.467,395.155,298.4C395.155,337.333,395.155,376.267,389.48,404.067C383.804,431.867,372.454,448.533,366.778,456.867L361.103,465.2" class="er relationshipLine"/><path marker-start="url(#ONLY_ONE_START)" marker-end="url(#ZERO_OR_MORE_END)" style="stroke: gray; fill: none;" d="M84.652,598.8L84.652,607.133C84.652,615.467,84.652,632.133,93.747,648.8C102.843,665.467,121.035,682.133,130.13,690.467L139.226,698.8" class="er relationshipLine"/><path marker-start="url(#ONLY_ONE_START)" marker-end="url(#ZERO_OR_MORE_END)" style="stroke: gray; fill: none;" d="M315.61,598.8L315.61,607.133C315.61,615.467,315.61,632.133,306.514,648.8C297.419,665.467,279.227,682.133,270.132,690.467L261.036,698.8" class="er relationshipLine"/><path marker-start="url(#ONLY_ONE_START)" marker-end="url(#ZERO_OR_MORE_END)" style="stroke: gray; fill: none;" d="M236.066,365.2L236.066,373.533C236.066,381.867,236.066,398.533,241.741,415.2C247.416,431.867,258.767,448.533,264.442,456.867L270.117,465.2" class="er relationshipLine"/><path marker-start="url(#ONLY_ONE_START)" marker-end="url(#ZERO_OR_MORE_END)" style="stroke: gray; fill: none;" d="M273.658,131.6L267.392,139.933C261.127,148.267,248.596,164.933,242.331,181.6C236.066,198.267,236.066,214.933,236.066,223.267L236.066,231.6" class="er relationshipLine"/><path marker-start="url(#ONLY_ONE_START)" marker-end="url(#ZERO_OR_MORE_END)" style="stroke: gray; fill: none;" d="M357.563,131.6L363.828,139.933C370.093,148.267,382.624,164.933,388.889,192.733C395.155,220.533,395.155,259.467,395.155,298.4C395.155,337.333,395.155,376.267,389.48,404.067C383.804,431.867,372.454,448.533,366.778,456.867L361.103,465.2" class="er relationshipLine"/><g transform="translate(20,465.2000045776367 )" id="entity-STUDENT-1b2391c8-f2ba-530c-95a9-6a5256c98860"><rect height="133.60000038146973" width="129.3033208847046" y="0" x="0" class="er entityBox"/><text transform="translate(64.6516604423523,11.800000190734863)" style="dominant-baseline: middle; text-anchor: middle; font-size: 12px;" y="0" x="0" id="text-entity-STUDENT-1b2391c8-f2ba-530c-95a9-6a5256c98860" class="er entityLabel">STUDENT</text><rect height="22" width="34.95000076293945" y="23.600000381469727" x="0" class="er attributeBoxOdd"/><text transform="translate(5,34.60000038146973)" style="dominant-baseline: middle; font-size: 10.2px;" y="0" x="0" id="text-entity-STUDENT-1b2391c8-f2ba-530c-95a9-6a5256c98860-attr-1-type" class="er entityLabel">int</text><rect height="22" width="69.54999923706055" y="23.600000381469727" x="34.95000076293945" class="er attributeBoxOdd"/><text transform="translate(39.95000076293945,34.60000038146973)" style="dominant-baseline: middle; font-size: 10.2px;" y="0" x="0" id="text-entity-STUDENT-1b2391c8-f2ba-530c-95a9-6a5256c98860-attr-1-name" class="er entityLabel">student_id</text><rect height="22" width="24.80332088470459" y="23.600000381469727" x="104.5" class="er attributeBoxOdd"/><text transform="translate(109.5,34.60000038146973)" style="dominant-baseline: middle; font-size: 10.2px;" y="0" x="0" id="text-entity-STUDENT-1b2391c8-f2ba-530c-95a9-6a5256c98860-attr-1-key" class="er entityLabel">PK</text><rect height="22" width="34.95000076293945" y="45.60000038146973" x="0" class="er attributeBoxEven"/><text transform="translate(5,56.60000038146973)" style="dominant-baseline: middle; font-size: 10.2px;" y="0" x="0" id="text-entity-STUDENT-1b2391c8-f2ba-530c-95a9-6a5256c98860-attr-2-type" class="er entityLabel">string</text><rect height="22" width="69.54999923706055" y="45.60000038146973" x="34.95000076293945" class="er attributeBoxEven"/><text transform="translate(39.95000076293945,56.60000038146973)" style="dominant-baseline: middle; font-size: 10.2px;" y="0" x="0" id="text-entity-STUDENT-1b2391c8-f2ba-530c-95a9-6a5256c98860-attr-2-name" class="er entityLabel">first_name</text><rect height="22" width="24.80332088470459" y="45.60000038146973" x="104.5" class="er attributeBoxEven"/><text transform="translate(109.5,56.60000038146973)" style="dominant-baseline: middle; font-size: 10.2px;" y="0" x="0" id="text-entity-STUDENT-1b2391c8-f2ba-530c-95a9-6a5256c98860-attr-2-key" class="er entityLabel"/><rect height="22" width="34.95000076293945" y="67.60000038146973" x="0" class="er attributeBoxOdd"/><text transform="translate(5,78.60000038146973)" style="dominant-baseline: middle; font-size: 10.2px;" y="0" x="0" id="text-entity-STUDENT-1b2391c8-f2ba-530c-95a9-6a5256c98860-attr-3-type" class="er entityLabel">string</text><rect height="22" width="69.54999923706055" y="67.60000038146973" x="34.95000076293945" class="er attributeBoxOdd"/><text transform="translate(39.95000076293945,78.60000038146973)" style="dominant-baseline: middle; font-size: 10.2px;" y="0" x="0" id="text-entity-STUDENT-1b2391c8-f2ba-530c-95a9-6a5256c98860-attr-3-name" class="er entityLabel">last_name</text><rect height="22" width="24.80332088470459" y="67.60000038146973" x="104.5" class="er attributeBoxOdd"/><text transform="translate(109.5,78.60000038146973)" style="dominant-baseline: middle; font-size: 10.2px;" y="0" x="0" id="text-entity-STUDENT-1b2391c8-f2ba-530c-95a9-6a5256c98860-attr-3-key" class="er entityLabel"/><rect height="22" width="34.95000076293945" y="89.60000038146973" x="0" class="er attributeBoxEven"/><text transform="translate(5,100.60000038146973)" style="dominant-baseline: middle; font-size: 10.2px;" y="0" x="0" id="text-entity-STUDENT-1b2391c8-f2ba-530c-95a9-6a5256c98860-attr-4-type" class="er entityLabel">date</text><rect height="22" width="69.54999923706055" y="89.60000038146973" x="34.95000076293945" class="er attributeBoxEven"/><text transform="translate(39.95000076293945,100.60000038146973)" style="dominant-baseline: middle; font-size: 10.2px;" y="0" x="0" id="text-entity-STUDENT-1b2391c8-f2ba-530c-95a9-6a5256c98860-attr-4-name" class="er entityLabel">date_of_birth</text><rect height="22" width="24.80332088470459" y="89.60000038146973" x="104.5" class="er attributeBoxEven"/><text transform="translate(109.5,100.60000038146973)" style="dominant-baseline: middle; font-size: 10.2px;" y="0" x="0" id="text-entity-STUDENT-1b2391c8-f2ba-530c-95a9-6a5256c98860-attr-4-key" class="er entityLabel"/><rect height="22" width="34.95000076293945" y="111.60000038146973" x="0" class="er attributeBoxOdd"/><text transform="translate(5,122.60000038146973)" style="dominant-baseline: middle; font-size: 10.2px;" y="0" x="0" id="text-entity-STUDENT-1b2391c8-f2ba-530c-95a9-6a5256c98860-attr-5-type" class="er entityLabel">string</text><rect height="22" width="69.54999923706055" y="111.60000038146973" x="34.95000076293945" class="er attributeBoxOdd"/><text transform="translate(39.95000076293945,122.60000038146973)" style="dominant-baseline: middle; font-size: 10.2px;" y="0" x="0" id="text-entity-STUDENT-1b2391c8-f2ba-530c-95a9-6a5256c98860-attr-5-name" class="er entityLabel">email</text><rect height="22" width="24.80332088470459" y="111.60000038146973" x="104.5" class="er attributeBoxOdd"/><text transform="translate(109.5,122.60000038146973)" style="dominant-baseline: middle; font-size: 10.2px;" y="0" x="0" id="text-entity-STUDENT-1b2391c8-f2ba-530c-95a9-6a5256c98860-attr-5-key" class="er entityLabel"/></g><g transform="translate(123.51374053955078,698.8000106811523 )" id="entity-ENROLLMENT-62af8dcb-2c1a-5fc1-bde0-a3db2031b7f8"><rect height="111.60000038146973" width="153.23437786102295" y="0" x="0" class="er entityBox"/><text transform="translate(76.61718893051147,11.800000190734863)" style="dominant-baseline: middle; text-anchor: middle; font-size: 12px;" y="0" x="0" id="text-entity-ENROLLMENT-62af8dcb-2c1a-5fc1-bde0-a3db2031b7f8" class="er entityLabel">ENROLLMENT</text><rect height="22" width="45.28105545043945" y="23.600000381469727" x="0" class="er attributeBoxOdd"/><text transform="translate(5,34.60000038146973)" style="dominant-baseline: middle; font-size: 10.2px;" y="0" x="0" id="text-entity-ENROLLMENT-62af8dcb-2c1a-5fc1-bde0-a3db2031b7f8-attr-1-type" class="er entityLabel">int</text><rect height="22" width="83.1500015258789" y="23.600000381469727" x="45.28105545043945" class="er attributeBoxOdd"/><text transform="translate(50.28105545043945,34.60000038146973)" style="dominant-baseline: middle; font-size: 10.2px;" y="0" x="0" id="text-entity-ENROLLMENT-62af8dcb-2c1a-5fc1-bde0-a3db2031b7f8-attr-1-name" class="er entityLabel">enrollment_id</text><rect height="22" width="24.80332088470459" y="23.600000381469727" x="128.43105697631836" class="er attributeBoxOdd"/><text transform="translate(133.43105697631836,34.60000038146973)" style="dominant-baseline: middle; font-size: 10.2px;" y="0" x="0" id="text-entity-ENROLLMENT-62af8dcb-2c1a-5fc1-bde0-a3db2031b7f8-attr-1-key" class="er entityLabel">PK</text><rect height="22" width="45.28105545043945" y="45.60000038146973" x="0" class="er attributeBoxEven"/><text transform="translate(5,56.60000038146973)" style="dominant-baseline: middle; font-size: 10.2px;" y="0" x="0" id="text-entity-ENROLLMENT-62af8dcb-2c1a-5fc1-bde0-a3db2031b7f8-attr-2-type" class="er entityLabel">date</text><rect height="22" width="83.1500015258789" y="45.60000038146973" x="45.28105545043945" class="er attributeBoxEven"/><text transform="translate(50.28105545043945,56.60000038146973)" style="dominant-baseline: middle; font-size: 10.2px;" y="0" x="0" id="text-entity-ENROLLMENT-62af8dcb-2c1a-5fc1-bde0-a3db2031b7f8-attr-2-name" class="er entityLabel">enrollment_date</text><rect height="22" width="24.80332088470459" y="45.60000038146973" x="128.43105697631836" class="er attributeBoxEven"/><text transform="translate(133.43105697631836,56.60000038146973)" style="dominant-baseline: middle; font-size: 10.2px;" y="0" x="0" id="text-entity-ENROLLMENT-62af8dcb-2c1a-5fc1-bde0-a3db2031b7f8-attr-2-key" class="er entityLabel"/><rect height="22" width="45.28105545043945" y="67.60000038146973" x="0" class="er attributeBoxOdd"/><text transform="translate(5,78.60000038146973)" style="dominant-baseline: middle; font-size: 10.2px;" y="0" x="0" id="text-entity-ENROLLMENT-62af8dcb-2c1a-5fc1-bde0-a3db2031b7f8-attr-3-type" class="er entityLabel">decimal</text><rect height="22" width="83.1500015258789" y="67.60000038146973" x="45.28105545043945" class="er attributeBoxOdd"/><text transform="translate(50.28105545043945,78.60000038146973)" style="dominant-baseline: middle; font-size: 10.2px;" y="0" x="0" id="text-entity-ENROLLMENT-62af8dcb-2c1a-5fc1-bde0-a3db2031b7f8-attr-3-name" class="er entityLabel">grade</text><rect height="22" width="24.80332088470459" y="67.60000038146973" x="128.43105697631836" class="er attributeBoxOdd"/><text transform="translate(133.43105697631836,78.60000038146973)" style="dominant-baseline: middle; font-size: 10.2px;" y="0" x="0" id="text-entity-ENROLLMENT-62af8dcb-2c1a-5fc1-bde0-a3db2031b7f8-attr-3-key" class="er entityLabel"/><rect height="22" width="45.28105545043945" y="89.60000038146973" x="0" class="er attributeBoxEven"/><text transform="translate(5,100.60000038146973)" style="dominant-baseline: middle; font-size: 10.2px;" y="0" x="0" id="text-entity-ENROLLMENT-62af8dcb-2c1a-5fc1-bde0-a3db2031b7f8-attr-4-type" class="er entityLabel">enum</text><rect height="22" width="83.1500015258789" y="89.60000038146973" x="45.28105545043945" class="er attributeBoxEven"/><text transform="translate(50.28105545043945,100.60000038146973)" style="dominant-baseline: middle; font-size: 10.2px;" y="0" x="0" id="text-entity-ENROLLMENT-62af8dcb-2c1a-5fc1-bde0-a3db2031b7f8-attr-4-name" class="er entityLabel">status</text><rect height="22" width="24.80332088470459" y="89.60000038146973" x="128.43105697631836" class="er attributeBoxEven"/><text transform="translate(133.43105697631836,100.60000038146973)" style="dominant-baseline: middle; font-size: 10.2px;" y="0" x="0" id="text-entity-ENROLLMENT-62af8dcb-2c1a-5fc1-bde0-a3db2031b7f8-attr-4-key" class="er entityLabel"/></g><g transform="translate(249.30331420898438,465.2000045776367 )" id="entity-COURSE-94e4e0ca-538f-5eec-8201-7eda2bcf423a"><rect height="133.60000038146973" width="132.61377239227295" y="0" x="0" class="er entityBox"/><text transform="translate(66.30688619613647,11.800000190734863)" style="dominant-baseline: middle; text-anchor: middle; font-size: 12px;" y="0" x="0" id="text-entity-COURSE-94e4e0ca-538f-5eec-8201-7eda2bcf423a" class="er entityLabel">COURSE</text><rect height="22" width="34.95000076293945" y="23.600000381469727" x="0" class="er attributeBoxOdd"/><text transform="translate(5,34.60000038146973)" style="dominant-baseline: middle; font-size: 10.2px;" y="0" x="0" id="text-entity-COURSE-94e4e0ca-538f-5eec-8201-7eda2bcf423a-attr-1-type" class="er entityLabel">int</text><rect height="22" width="72.8604507446289" y="23.600000381469727" x="34.95000076293945" class="er attributeBoxOdd"/><text transform="translate(39.95000076293945,34.60000038146973)" style="dominant-baseline: middle; font-size: 10.2px;" y="0" x="0" id="text-entity-COURSE-94e4e0ca-538f-5eec-8201-7eda2bcf423a-attr-1-name" class="er entityLabel">course_id</text><rect height="22" width="24.80332088470459" y="23.600000381469727" x="107.81045150756836" class="er attributeBoxOdd"/><text transform="translate(112.81045150756836,34.60000038146973)" style="dominant-baseline: middle; font-size: 10.2px;" y="0" x="0" id="text-entity-COURSE-94e4e0ca-538f-5eec-8201-7eda2bcf423a-attr-1-key" class="er entityLabel">PK</text><rect height="22" width="34.95000076293945" y="45.60000038146973" x="0" class="er attributeBoxEven"/><text transform="translate(5,56.60000038146973)" style="dominant-baseline: middle; font-size: 10.2px;" y="0" x="0" id="text-entity-COURSE-94e4e0ca-538f-5eec-8201-7eda2bcf423a-attr-2-type" class="er entityLabel">string</text><rect height="22" width="72.8604507446289" y="45.60000038146973" x="34.95000076293945" class="er attributeBoxEven"/><text transform="translate(39.95000076293945,56.60000038146973)" style="dominant-baseline: middle; font-size: 10.2px;" y="0" x="0" id="text-entity-COURSE-94e4e0ca-538f-5eec-8201-7eda2bcf423a-attr-2-name" class="er entityLabel">course_code</text><rect height="22" width="24.80332088470459" y="45.60000038146973" x="107.81045150756836" class="er attributeBoxEven"/><text transform="translate(112.81045150756836,56.60000038146973)" style="dominant-baseline: middle; font-size: 10.2px;" y="0" x="0" id="text-entity-COURSE-94e4e0ca-538f-5eec-8201-7eda2bcf423a-attr-2-key" class="er entityLabel"/><rect height="22" width="34.95000076293945" y="67.60000038146973" x="0" class="er attributeBoxOdd"/><text transform="translate(5,78.60000038146973)" style="dominant-baseline: middle; font-size: 10.2px;" y="0" x="0" id="text-entity-COURSE-94e4e0ca-538f-5eec-8201-7eda2bcf423a-attr-3-type" class="er entityLabel">string</text><rect height="22" width="72.8604507446289" y="67.60000038146973" x="34.95000076293945" class="er attributeBoxOdd"/><text transform="translate(39.95000076293945,78.60000038146973)" style="dominant-baseline: middle; font-size: 10.2px;" y="0" x="0" id="text-entity-COURSE-94e4e0ca-538f-5eec-8201-7eda2bcf423a-attr-3-name" class="er entityLabel">course_name</text><rect height="22" width="24.80332088470459" y="67.60000038146973" x="107.81045150756836" class="er attributeBoxOdd"/><text transform="translate(112.81045150756836,78.60000038146973)" style="dominant-baseline: middle; font-size: 10.2px;" y="0" x="0" id="text-entity-COURSE-94e4e0ca-538f-5eec-8201-7eda2bcf423a-attr-3-key" class="er entityLabel"/><rect height="22" width="34.95000076293945" y="89.60000038146973" x="0" class="er attributeBoxEven"/><text transform="translate(5,100.60000038146973)" style="dominant-baseline: middle; font-size: 10.2px;" y="0" x="0" id="text-entity-COURSE-94e4e0ca-538f-5eec-8201-7eda2bcf423a-attr-4-type" class="er entityLabel">int</text><rect height="22" width="72.8604507446289" y="89.60000038146973" x="34.95000076293945" class="er attributeBoxEven"/><text transform="translate(39.95000076293945,100.60000038146973)" style="dominant-baseline: middle; font-size: 10.2px;" y="0" x="0" id="text-entity-COURSE-94e4e0ca-538f-5eec-8201-7eda2bcf423a-attr-4-name" class="er entityLabel">credits</text><rect height="22" width="24.80332088470459" y="89.60000038146973" x="107.81045150756836" class="er attributeBoxEven"/><text transform="translate(112.81045150756836,100.60000038146973)" style="dominant-baseline: middle; font-size: 10.2px;" y="0" x="0" id="text-entity-COURSE-94e4e0ca-538f-5eec-8201-7eda2bcf423a-attr-4-key" class="er entityLabel"/><rect height="22" width="34.95000076293945" y="111.60000038146973" x="0" class="er attributeBoxOdd"/><text transform="translate(5,122.60000038146973)" style="dominant-baseline: middle; font-size: 10.2px;" y="0" x="0" id="text-entity-COURSE-94e4e0ca-538f-5eec-8201-7eda2bcf423a-attr-5-type" class="er entityLabel">int</text><rect height="22" width="72.8604507446289" y="111.60000038146973" x="34.95000076293945" class="er attributeBoxOdd"/><text transform="translate(39.95000076293945,122.60000038146973)" style="dominant-baseline: middle; font-size: 10.2px;" y="0" x="0" id="text-entity-COURSE-94e4e0ca-538f-5eec-8201-7eda2bcf423a-attr-5-name" class="er entityLabel">max_capacity</text><rect height="22" width="24.80332088470459" y="111.60000038146973" x="107.81045150756836" class="er attributeBoxOdd"/><text transform="translate(112.81045150756836,122.60000038146973)" style="dominant-baseline: middle; font-size: 10.2px;" y="0" x="0" id="text-entity-COURSE-94e4e0ca-538f-5eec-8201-7eda2bcf423a-attr-5-key" class="er entityLabel"/></g><g transform="translate(176.9764575958252,231.5999984741211 )" id="entity-FACULTY-25324517-96f9-5467-8f67-e2ba88da4fcf"><rect height="133.60000038146973" width="118.17832088470459" y="0" x="0" class="er entityBox"/><text transform="translate(59.089160442352295,11.800000190734863)" style="dominant-baseline: middle; text-anchor: middle; font-size: 12px;" y="0" x="0" id="text-entity-FACULTY-25324517-96f9-5467-8f67-e2ba88da4fcf" class="er entityLabel">FACULTY</text><rect height="22" width="34.95000076293945" y="23.600000381469727" x="0" class="er attributeBoxOdd"/><text transform="translate(5,34.60000038146973)" style="dominant-baseline: middle; font-size: 10.2px;" y="0" x="0" id="text-entity-FACULTY-25324517-96f9-5467-8f67-e2ba88da4fcf-attr-1-type" class="er entityLabel">int</text><rect height="22" width="58.42499923706055" y="23.600000381469727" x="34.95000076293945" class="er attributeBoxOdd"/><text transform="translate(39.95000076293945,34.60000038146973)" style="dominant-baseline: middle; font-size: 10.2px;" y="0" x="0" id="text-entity-FACULTY-25324517-96f9-5467-8f67-e2ba88da4fcf-attr-1-name" class="er entityLabel">faculty_id</text><rect height="22" width="24.80332088470459" y="23.600000381469727" x="93.375" class="er attributeBoxOdd"/><text transform="translate(98.375,34.60000038146973)" style="dominant-baseline: middle; font-size: 10.2px;" y="0" x="0" id="text-entity-FACULTY-25324517-96f9-5467-8f67-e2ba88da4fcf-attr-1-key" class="er entityLabel">PK</text><rect height="22" width="34.95000076293945" y="45.60000038146973" x="0" class="er attributeBoxEven"/><text transform="translate(5,56.60000038146973)" style="dominant-baseline: middle; font-size: 10.2px;" y="0" x="0" id="text-entity-FACULTY-25324517-96f9-5467-8f67-e2ba88da4fcf-attr-2-type" class="er entityLabel">string</text><rect height="22" width="58.42499923706055" y="45.60000038146973" x="34.95000076293945" class="er attributeBoxEven"/><text transform="translate(39.95000076293945,56.60000038146973)" style="dominant-baseline: middle; font-size: 10.2px;" y="0" x="0" id="text-entity-FACULTY-25324517-96f9-5467-8f67-e2ba88da4fcf-attr-2-name" class="er entityLabel">first_name</text><rect height="22" width="24.80332088470459" y="45.60000038146973" x="93.375" class="er attributeBoxEven"/><text transform="translate(98.375,56.60000038146973)" style="dominant-baseline: middle; font-size: 10.2px;" y="0" x="0" id="text-entity-FACULTY-25324517-96f9-5467-8f67-e2ba88da4fcf-attr-2-key" class="er entityLabel"/><rect height="22" width="34.95000076293945" y="67.60000038146973" x="0" class="er attributeBoxOdd"/><text transform="translate(5,78.60000038146973)" style="dominant-baseline: middle; font-size: 10.2px;" y="0" x="0" id="text-entity-FACULTY-25324517-96f9-5467-8f67-e2ba88da4fcf-attr-3-type" class="er entityLabel">string</text><rect height="22" width="58.42499923706055" y="67.60000038146973" x="34.95000076293945" class="er attributeBoxOdd"/><text transform="translate(39.95000076293945,78.60000038146973)" style="dominant-baseline: middle; font-size: 10.2px;" y="0" x="0" id="text-entity-FACULTY-25324517-96f9-5467-8f67-e2ba88da4fcf-attr-3-name" class="er entityLabel">last_name</text><rect height="22" width="24.80332088470459" y="67.60000038146973" x="93.375" class="er attributeBoxOdd"/><text transform="translate(98.375,78.60000038146973)" style="dominant-baseline: middle; font-size: 10.2px;" y="0" x="0" id="text-entity-FACULTY-25324517-96f9-5467-8f67-e2ba88da4fcf-attr-3-key" class="er entityLabel"/><rect height="22" width="34.95000076293945" y="89.60000038146973" x="0" class="er attributeBoxEven"/><text transform="translate(5,100.60000038146973)" style="dominant-baseline: middle; font-size: 10.2px;" y="0" x="0" id="text-entity-FACULTY-25324517-96f9-5467-8f67-e2ba88da4fcf-attr-4-type" class="er entityLabel">string</text><rect height="22" width="58.42499923706055" y="89.60000038146973" x="34.95000076293945" class="er attributeBoxEven"/><text transform="translate(39.95000076293945,100.60000038146973)" style="dominant-baseline: middle; font-size: 10.2px;" y="0" x="0" id="text-entity-FACULTY-25324517-96f9-5467-8f67-e2ba88da4fcf-attr-4-name" class="er entityLabel">email</text><rect height="22" width="24.80332088470459" y="89.60000038146973" x="93.375" class="er attributeBoxEven"/><text transform="translate(98.375,100.60000038146973)" style="dominant-baseline: middle; font-size: 10.2px;" y="0" x="0" id="text-entity-FACULTY-25324517-96f9-5467-8f67-e2ba88da4fcf-attr-4-key" class="er entityLabel"/><rect height="22" width="34.95000076293945" y="111.60000038146973" x="0" class="er attributeBoxOdd"/><text transform="translate(5,122.60000038146973)" style="dominant-baseline: middle; font-size: 10.2px;" y="0" x="0" id="text-entity-FACULTY-25324517-96f9-5467-8f67-e2ba88da4fcf-attr-5-type" class="er entityLabel">date</text><rect height="22" width="58.42499923706055" y="111.60000038146973" x="34.95000076293945" class="er attributeBoxOdd"/><text transform="translate(39.95000076293945,122.60000038146973)" style="dominant-baseline: middle; font-size: 10.2px;" y="0" x="0" id="text-entity-FACULTY-25324517-96f9-5467-8f67-e2ba88da4fcf-attr-5-name" class="er entityLabel">hire_date</text><rect height="22" width="24.80332088470459" y="111.60000038146973" x="93.375" class="er attributeBoxOdd"/><text transform="translate(98.375,122.60000038146973)" style="dominant-baseline: middle; font-size: 10.2px;" y="0" x="0" id="text-entity-FACULTY-25324517-96f9-5467-8f67-e2ba88da4fcf-attr-5-key" class="er entityLabel"/></g><g transform="translate(239.33979034423828,20 )" id="entity-DEPARTMENT-c8b8b6c6-7645-582a-93ce-ec93aca41f07"><rect height="111.60000038146973" width="152.54082012176514" y="0" x="0" class="er entityBox"/><text transform="translate(76.27041006088257,11.800000190734863)" style="dominant-baseline: middle; text-anchor: middle; font-size: 12px;" y="0" x="0" id="text-entity-DEPARTMENT-c8b8b6c6-7645-582a-93ce-ec93aca41f07" class="er entityLabel">DEPARTMENT</text><rect height="22" width="34.95000076293945" y="23.600000381469727" x="0" class="er attributeBoxOdd"/><text transform="translate(5,34.60000038146973)" style="dominant-baseline: middle; font-size: 10.2px;" y="0" x="0" id="text-entity-DEPARTMENT-c8b8b6c6-7645-582a-93ce-ec93aca41f07-attr-1-type" class="er entityLabel">int</text><rect height="22" width="92.7874984741211" y="23.600000381469727" x="34.95000076293945" class="er attributeBoxOdd"/><text transform="translate(39.95000076293945,34.60000038146973)" style="dominant-baseline: middle; font-size: 10.2px;" y="0" x="0" id="text-entity-DEPARTMENT-c8b8b6c6-7645-582a-93ce-ec93aca41f07-attr-1-name" class="er entityLabel">department_id</text><rect height="22" width="24.80332088470459" y="23.600000381469727" x="127.73749923706055" class="er attributeBoxOdd"/><text transform="translate(132.73749923706055,34.60000038146973)" style="dominant-baseline: middle; font-size: 10.2px;" y="0" x="0" id="text-entity-DEPARTMENT-c8b8b6c6-7645-582a-93ce-ec93aca41f07-attr-1-key" class="er entityLabel">PK</text><rect height="22" width="34.95000076293945" y="45.60000038146973" x="0" class="er attributeBoxEven"/><text transform="translate(5,56.60000038146973)" style="dominant-baseline: middle; font-size: 10.2px;" y="0" x="0" id="text-entity-DEPARTMENT-c8b8b6c6-7645-582a-93ce-ec93aca41f07-attr-2-type" class="er entityLabel">string</text><rect height="22" width="92.7874984741211" y="45.60000038146973" x="34.95000076293945" class="er attributeBoxEven"/><text transform="translate(39.95000076293945,56.60000038146973)" style="dominant-baseline: middle; font-size: 10.2px;" y="0" x="0" id="text-entity-DEPARTMENT-c8b8b6c6-7645-582a-93ce-ec93aca41f07-attr-2-name" class="er entityLabel">department_name</text><rect height="22" width="24.80332088470459" y="45.60000038146973" x="127.73749923706055" class="er attributeBoxEven"/><text transform="translate(132.73749923706055,56.60000038146973)" style="dominant-baseline: middle; font-size: 10.2px;" y="0" x="0" id="text-entity-DEPARTMENT-c8b8b6c6-7645-582a-93ce-ec93aca41f07-attr-2-key" class="er entityLabel"/><rect height="22" width="34.95000076293945" y="67.60000038146973" x="0" class="er attributeBoxOdd"/><text transform="translate(5,78.60000038146973)" style="dominant-baseline: middle; font-size: 10.2px;" y="0" x="0" id="text-entity-DEPARTMENT-c8b8b6c6-7645-582a-93ce-ec93aca41f07-attr-3-type" class="er entityLabel">string</text><rect height="22" width="92.7874984741211" y="67.60000038146973" x="34.95000076293945" class="er attributeBoxOdd"/><text transform="translate(39.95000076293945,78.60000038146973)" style="dominant-baseline: middle; font-size: 10.2px;" y="0" x="0" id="text-entity-DEPARTMENT-c8b8b6c6-7645-582a-93ce-ec93aca41f07-attr-3-name" class="er entityLabel">location</text><rect height="22" width="24.80332088470459" y="67.60000038146973" x="127.73749923706055" class="er attributeBoxOdd"/><text transform="translate(132.73749923706055,78.60000038146973)" style="dominant-baseline: middle; font-size: 10.2px;" y="0" x="0" id="text-entity-DEPARTMENT-c8b8b6c6-7645-582a-93ce-ec93aca41f07-attr-3-key" class="er entityLabel"/><rect height="22" width="34.95000076293945" y="89.60000038146973" x="0" class="er attributeBoxEven"/><text transform="translate(5,100.60000038146973)" style="dominant-baseline: middle; font-size: 10.2px;" y="0" x="0" id="text-entity-DEPARTMENT-c8b8b6c6-7645-582a-93ce-ec93aca41f07-attr-4-type" class="er entityLabel">string</text><rect height="22" width="92.7874984741211" y="89.60000038146973" x="34.95000076293945" class="er attributeBoxEven"/><text transform="translate(39.95000076293945,100.60000038146973)" style="dominant-baseline: middle; font-size: 10.2px;" y="0" x="0" id="text-entity-DEPARTMENT-c8b8b6c6-7645-582a-93ce-ec93aca41f07-attr-4-name" class="er entityLabel">contact_email</text><rect height="22" width="24.80332088470459" y="89.60000038146973" x="127.73749923706055" class="er attributeBoxEven"/><text transform="translate(132.73749923706055,100.60000038146973)" style="dominant-baseline: middle; font-size: 10.2px;" y="0" x="0" id="text-entity-DEPARTMENT-c8b8b6c6-7645-582a-93ce-ec93aca41f07-attr-4-key" class="er entityLabel"/></g><rect height="13.600000381469727" width="35.749610900878906" y="648.9833250045776" x="80.18172073364258" class="er relationshipLabelBox"/><text style="text-anchor: middle; dominant-baseline: middle; font-size: 12px;" y="655.7833251953125" x="98.05652618408203" id="rel11" class="er relationshipLabel">enrolls</text><rect height="13.600000381469727" width="44.427345275878906" y="648.9830808639526" x="279.9913139343262" class="er relationshipLabelBox"/><text style="text-anchor: middle; dominant-baseline: middle; font-size: 12px;" y="655.7830810546875" x="302.2049865722656" id="rel12" class="er relationshipLabel">includes</text><rect height="13.600000381469727" width="43.22929763793945" y="411.732195854187" x="221.33438682556152" class="er relationshipLabelBox"/><text style="text-anchor: middle; dominant-baseline: middle; font-size: 12px;" y="418.5321960449219" x="242.94903564453125" id="rel13" class="er relationshipLabel">teaches</text><rect height="13.600000381469727" width="45.083595275878906" y="170.8602170944214" x="221.38256454467773" class="er relationshipLabelBox"/><text style="text-anchor: middle; dominant-baseline: middle; font-size: 12px;" y="177.66021728515625" x="243.9243621826172" id="rel14" class="er relationshipLabel">employs</text><rect height="13.600000381469727" width="30.194921493530273" y="290.8748655319214" x="380.0573854446411" class="er relationshipLabelBox"/><text style="text-anchor: middle; dominant-baseline: middle; font-size: 12px;" y="297.67486572265625" x="395.15484619140625" id="rel15" class="er relationshipLabel">offers</text><rect height="13.600000381469727" width="35.749610900878906" y="648.9833250045776" x="80.18172073364258" class="er relationshipLabelBox"/><text style="text-anchor: middle; dominant-baseline: middle; font-size: 12px;" y="655.7833251953125" x="98.05652618408203" id="rel16" class="er relationshipLabel">enrolls</text><rect height="13.600000381469727" width="44.427345275878906" y="648.9830808639526" x="279.9913139343262" class="er relationshipLabelBox"/><text style="text-anchor: middle; dominant-baseline: middle; font-size: 12px;" y="655.7830810546875" x="302.2049865722656" id="rel17" class="er relationshipLabel">includes</text><rect height="13.600000381469727" width="43.22929763793945" y="411.732195854187" x="221.33438682556152" class="er relationshipLabelBox"/><text style="text-anchor: middle; dominant-baseline: middle; font-size: 12px;" y="418.5321960449219" x="242.94903564453125" id="rel18" class="er relationshipLabel">teaches</text><rect height="13.600000381469727" width="45.083595275878906" y="170.8602170944214" x="221.38256454467773" class="er relationshipLabelBox"/><text style="text-anchor: middle; dominant-baseline: middle; font-size: 12px;" y="177.66021728515625" x="243.9243621826172" id="rel19" class="er relationshipLabel">employs</text><rect height="13.600000381469727" width="30.194921493530273" y="290.8748655319214" x="380.0573854446411" class="er relationshipLabelBox"/><text style="text-anchor: middle; dominant-baseline: middle; font-size: 12px;" y="297.67486572265625" x="395.15484619140625" id="rel20" class="er relationshipLabel">offers</text></svg>